<svg xmlns="http://www.w3.org/2000/svg" version="1.1" xmlns:xlink="http://www.w3.org/1999/xlink" xmlns:svgjs="http://svgjs.dev/svgjs" width="128" height="128" viewBox="0 0 128 128"><g transform="matrix(0.8046875,0,0,0.8046875,12.333870967741937,12.333870967741937)"><svg viewBox="0 0 155 155" data-background-color="#0c0c0c" preserveAspectRatio="xMidYMid meet" height="128" width="128" xmlns="http://www.w3.org/2000/svg" xmlns:xlink="http://www.w3.org/1999/xlink"><g id="tight-bounds" transform="matrix(1,0,0,1,0.25,0.25)"><svg viewBox="0 0 154.5 154.5" height="154.5" width="154.5"><g><svg></svg></g><g><svg viewBox="0 0 154.5 154.5" height="154.5" width="154.5"><g transform="matrix(1,0,0,1,54.04981695845698,47.746371)"><svg viewBox="0 0 46.40036608308604 59.00725799999999" height="59.00725799999999" width="46.40036608308604"><g><svg viewBox="0 0 46.40036608308604 59.00725799999999" height="59.00725799999999" width="46.40036608308604"><g><svg viewBox="0 0 46.40036608308604 59.00725799999999" height="59.00725799999999" width="46.40036608308604"><g id="textblocktransform"><svg viewBox="0 0 46.40036608308604 59.00725799999999" height="59.00725799999999" width="46.40036608308604" id="textblock"><g><svg viewBox="0 0 46.40036608308604 59.00725799999999" height="59.00725799999999" width="46.40036608308604"><g transform="matrix(1,0,0,1,0,0)"><svg width="46.40036608308604" viewBox="4 -33.7 26.5 33.7" height="59.00725799999999" data-palette-color="#0074d9"><path d="M13.85 0L13.85 0 4 0 4-33.7 13.6-33.7Q21-33.7 25.75-29.1 30.5-24.5 30.5-17.05L30.5-17.05Q30.5-12.5 28.75-8.72 27-4.95 23.13-2.48 19.25 0 13.85 0ZM13.6-30.85L13.6-30.85 7.1-30.85 7.1-2.85 13.85-2.85Q17.3-2.85 19.95-4.05 22.6-5.25 24.15-7.3 25.7-9.35 26.48-11.8 27.25-14.25 27.25-17.05L27.25-17.05Q27.25-22.8 23.43-26.83 19.6-30.85 13.6-30.85Z" opacity="1" transform="matrix(1,0,0,1,0,0)" fill="#0074d9" class="wordmark-text-0" data-fill-palette-color="primary" id="text-0"></path></svg></g></svg></g></svg></g></svg></g></svg></g></svg></g><g><path d="M50.437 33.816A23.2 23.2 0 0 1 104.063 33.816L98.742 33.816A17.879 17.879 0 0 0 55.758 33.816L50.437 33.816M50.437 120.684A23.2 23.2 0 0 0 104.063 120.684L98.742 120.684A17.879 17.879 0 0 1 55.758 120.684L50.437 120.684" fill="#cd2945" stroke="transparent" data-fill-palette-color="tertiary"></path></g></svg></g><defs></defs></svg><rect width="154.5" height="154.5" fill="none" stroke="none" visibility="hidden"></rect></g></svg></g></svg>