<svg xmlns="http://www.w3.org/2000/svg" version="1.1" xmlns:xlink="http://www.w3.org/1999/xlink" xmlns:svgjs="http://svgjs.dev/svgjs" width="2000" height="1191" viewBox="0 0 2000 1191"><g transform="matrix(1,0,0,1,-1.2112696095522324,0.768567041967799)"><svg viewBox="0 0 396 236" data-background-color="#ffffff" preserveAspectRatio="xMidYMid meet" height="1191" width="2000" xmlns="http://www.w3.org/2000/svg" xmlns:xlink="http://www.w3.org/1999/xlink"><g id="tight-bounds" transform="matrix(1,0,0,1,0.24008861730862918,-0.15229372116239404)"><svg viewBox="0 0 395.52 236.30452364499845" height="236.30452364499845" width="395.52"><g><svg viewBox="0 0 395.52 236.30452364499845" height="236.30452364499845" width="395.52"><g><svg viewBox="0 0 395.52 236.30452364499845" height="236.30452364499845" width="395.52"><g id="textblocktransform"><svg viewBox="0 0 395.52 236.30452364499845" height="236.30452364499845" width="395.52" id="textblock"><g><svg viewBox="0 0 395.52 236.30452364499845" height="236.30452364499845" width="395.52"><path d="M394.594 50.683C392.735 26.154 387.435 19.336 387.435 19.336 371.165-5.929 350.86-0.483 332.619 3.147 300.414 3.294 268.339 8.69 236.208 11.585 168.767 12.026 100.749 4.766 33.643 22.671 27.339 28.166-6.54 23.751 1.121 53.822 3.129 66.332 10.456 80.215 10.232 91.694 11.236 93.705 12.631 89.094 13.226 91.989 15.309 99.789 18.711 96.109 21.501 100.721 17.614 113.034 20.403 123.287 23.062 134.03 18.377 136.826 12.371 135.502 9.675 144.773 9.396 151.494 7.89 150.219 6.235 149.924 5.026 149.728 2.59 150.464 2.999 152.573 4.394 159.785-1.594 163.955 2.162 171.019-0.422 178.672 3.948 185.294 3.353 193.585 3.278 195.253 3.687 196.675 4.338 197.068 7.22 199.177 3.018 203.298 3.464 207.762 33.029 238.275 65.104 217.181 95.394 231.211 103.259 221.4 97.346 234.694 100.489 232.634 102.943 230.23 104.728 240.189 107.499 234.547 107.927 232.928 107.276 229.102 108.8 229.838 109.6 230.23 110.307 230.132 110.418 227.875 110.586 224.491 109.117 226.6 108.726 224.834 112.947 215.906 111.906 237.147 115.866 236.264 115.68 233.664 114.528 229.936 116.889 230.426 119.232 226.698 119.306 223.608 121.389 231.996 121.463 233.811 121.835 235.087 122.43 235.97 128.938 226.845 135.409 239.208 142.233 235.087 146.417 230.574 150.433 237.54 154.672 235.823 156.16 234.449 157.666 231.996 159.098 236.117 176.632 237 195.319 233.321 211.943 236.264 256.364 230.77 303.836 238.521 350.674 231.26 361.719 228.464 373.192 224.491 383.958 221.302 383.958 221.302 392.679 212.57 392.679 173.324S394.538 138.985 394.817 107.736C395.096 76.487 396.398 75.211 394.538 50.683Z" opacity="1" fill="#cd2945" data-fill-palette-color="tertiary"></path><g transform="matrix(1,0,0,1,55.76832,26.230666666666668)"><svg width="283.98335999999995" viewBox="3.25 -35.01 54.83 35.5" height="183.84319031166513" data-palette-color="#111111"><path d="M31.3-17.5L31.3-17.5Q31.3-15.09 30.68-12.85 30.05-10.62 28.91-8.68 27.76-6.74 26.17-5.14 24.58-3.54 22.63-2.39 20.68-1.25 18.44-0.62 16.21 0 13.79 0L13.79 0 3.25 0 3.25-35.01 13.79-35.01Q16.21-35.01 18.44-34.39 20.68-33.76 22.63-32.62 24.58-31.47 26.17-29.87 27.76-28.27 28.91-26.33 30.05-24.39 30.68-22.16 31.3-19.92 31.3-17.5ZM24.29-17.5L24.29-17.5Q24.29-19.68 23.47-21.58 22.66-23.49 21.23-24.91 19.8-26.34 17.88-27.17 15.97-28 13.79-28L13.79-28 10.3-28 10.3-7.01 13.79-7.01Q15.97-7.01 17.88-7.82 19.8-8.64 21.23-10.07 22.66-11.5 23.47-13.42 24.29-15.33 24.29-17.5ZM58.08-20.95L58.08-20.95 53.2-16.04Q52.83-17.07 52.19-17.88 51.56-18.7 50.77-19.26 49.97-19.82 49.05-20.12 48.12-20.41 47.14-20.41L47.14-20.41Q45.77-20.41 44.57-19.85 43.36-19.29 42.47-18.27 41.57-17.26 41.06-15.87 40.55-14.48 40.55-12.79L40.55-12.79Q40.55-11.43 41.06-10.23 41.57-9.03 42.47-8.13 43.36-7.23 44.57-6.71 45.77-6.2 47.14-6.2L47.14-6.2Q48.12-6.2 49.02-6.47 49.92-6.74 50.72-7.24 51.51-7.74 52.13-8.46 52.76-9.18 53.15-10.06L53.15-10.06 58.03-5.15Q57.1-3.83 55.89-2.78 54.69-1.73 53.28-1 51.88-0.27 50.33 0.11 48.78 0.49 47.14 0.49L47.14 0.49Q44.38 0.49 41.95-0.55 39.52-1.59 37.71-3.39 35.89-5.2 34.84-7.62 33.79-10.03 33.79-12.79L33.79-12.79Q33.79-15.8 34.84-18.41 35.89-21.02 37.71-22.96 39.52-24.9 41.95-26.03 44.38-27.15 47.14-27.15L47.14-27.15Q48.78-27.15 50.35-26.73 51.93-26.32 53.35-25.52 54.78-24.73 55.99-23.58 57.2-22.44 58.08-20.95Z" opacity="1" transform="matrix(1,0,0,1,0,0)" fill="#111111" class="wordmark-text-0" data-fill-palette-color="quaternary" id="text-0"></path></svg></g></svg></g></svg></g></svg></g></svg></g><defs></defs></svg><rect width="395.52" height="236.30452364499845" fill="none" stroke="none" visibility="hidden"></rect></g></svg></g></svg>